<svg id="Layer_1" data-name="Layer 1" xmlns="http://www.w3.org/2000/svg" viewBox="0 0 594.2 582.6"><defs><style>.cls-1,.cls-3{fill:#010101;}.cls-2{fill:#fff;}.cls-3{fill-rule:evenodd;}</style></defs><path class="cls-1" d="M297.1,579.6l5.8-5.8-5.8-5.8-5.8,5.8ZM297.1,3l-5.8,5.8,5.8,5.8,5.8-5.8Zm1,570.8V8.8h-2v565Z"/><path class="cls-1" d="M585.4,300.1l-5.8-5.8-5.8,5.8,5.8,5.8Zm-576.6,0,5.8,5.8,5.8-5.8-5.8-5.8Zm570.8-1H14.6v2h565Z"/><circle class="cls-2" cx="297.5" cy="305.5" r="18.8"/><path class="cls-3" d="M278.8,301.6c0,.2.4.3.6.3s.8-1.8,1.1-2.7a10.5,10.5,0,0,1,1.3-2.6,18.5,18.5,0,0,1,14.2-9.1,19.4,19.4,0,0,1-.2,2.4c-1.2,8.5-5.4,13-14.6,14.3l-2.3.2-4.8.5c-.7,0-2.1,0-2.1.6s1,.6,1.6.6l2.1.2c3.8.3,2.2,1.1,3.6,5.2l.6,1.6,1.6,2.8.9,1.4a17.9,17.9,0,0,0,2.7,2.8c.5.3,5.3,4,5.3,2.6s-.4-.7-.9-.9a18.4,18.4,0,0,1-8.8-9.6,14.3,14.3,0,0,1-1.3-5.4,25.3,25.3,0,0,1,4.8.7,12.9,12.9,0,0,1,8.5,5.2,12.4,12.4,0,0,1,1.9,3.6,67.7,67.7,0,0,1,2,11.8c0,.6.4,4.9.5,5.1s.5.5.7.1a1.8,1.8,0,0,0,.3-1.1,40.5,40.5,0,0,1,.4-5c.4-3.4,1.5-2.4,4.8-3.5a23,23,0,0,0,3.9-1.7l2.4-1.7a18.9,18.9,0,0,0,5.4-7.1c.2-.4,2.1-4.7.8-4.7s-.7,1.4-1.2,2.9a13.9,13.9,0,0,1-1.2,2.8,16.4,16.4,0,0,1-6.8,7l-1.3.7-3,1.1-3.3.6a17.5,17.5,0,0,1,.5-3.3c.5-2.5.9-5,2.4-7.2s1.3-1.1.4-1.7-3.5,7.2-4,9l-.7,3.7h-.4c0-2.7-1.5-8.4-2.9-10.6a8.7,8.7,0,0,0-.8-1.4,13.6,13.6,0,0,0-6.5-4.8,24.6,24.6,0,0,0-5.5-1.4,12,12,0,0,1-2-.3v-.2c4.4-.3,9.3-1.7,12.5-4.7a12.7,12.7,0,0,0,2.4-3.3,16.4,16.4,0,0,0,1.4-3.3,42.9,42.9,0,0,0,1.5-7.8h.4a36.8,36.8,0,0,0,2,9.3,15,15,0,0,0,2.6,4.4,14.9,14.9,0,0,0,5.4,3.7,23.8,23.8,0,0,0,5.4,1.4,10.6,10.6,0,0,1,2,.3c-.1.7-1.4.6-2,.7s-6.3,1-6.3,1.9,2-.2,4-.5,7-1,10.4-1.4c.7,0,1.8.1,1.8-.6s-1-.5-1.6-.5a15.9,15.9,0,0,1-3.9-.6c-1.3-.8-1.1-2.7-1.8-4.8a18.8,18.8,0,0,0-3.6-6.3l-.5-.7-1.1-1.1a15.7,15.7,0,0,0-2.6-1.9c-3.8-2.6-3.8-1.1-3.1-.6l1.1.5a11.8,11.8,0,0,1,2.2,1.4,18.4,18.4,0,0,1,6.1,7.7,10.7,10.7,0,0,1,.9,2.7,14.5,14.5,0,0,1,.5,3,25.3,25.3,0,0,1-4.8-.7,12.6,12.6,0,0,1-4-1.4l-1.7-1.1a12.3,12.3,0,0,1-3.3-3.5c-2.5-3.7-2.8-9.6-3.4-14.3-.1-1.3-.2-4.5-.4-5.2s-1-.5-1.1.5a21.8,21.8,0,0,1-.1,2.5,24.2,24.2,0,0,0-.3,2.5c-.2,1.9-.2,2.7-2.3,3.1a19.8,19.8,0,0,0-10.7,5.8,4.2,4.2,0,0,1-.6.8l-.6.7C280.9,295.7,278.8,299.6,278.8,301.6Z"/><path class="cls-3" d="M326.1,277.4c0,.4.1.5.5.6s.3,0,.5-.1v-.6C326.7,277,326.1,276.8,326.1,277.4Z"/><path class="cls-3" d="M326.1,277.2v.6c.4.2.9.5,1-.2a.3.3,0,0,0-.3-.5A.6.6,0,0,0,326.1,277.2Z"/><path class="cls-3" d="M326.1,277.5a.5.5,0,1,0,1,0A.5.5,0,0,0,326.1,277.5Z"/><path class="cls-3" d="M326.1,277.5l.5.5.5-.2C327.2,276.6,326.1,277,326.1,277.5Z"/></svg>